<svg height="511pt" viewBox="1 -110 511.99999 511" width="511pt" xmlns="http://www.w3.org/2000/svg"><path d="m503.464844.5h-494.929688c-4.714844 0-8.535156 3.820312-8.535156 8.535156v273.066406c0 4.710938 3.820312 8.53125 8.535156 8.53125h494.929688c4.714844 0 8.535156-3.820312 8.535156-8.53125v-273.066406c0-4.714844-3.820312-8.535156-8.535156-8.535156zm-8.53125 273.066406h-477.867188v-256h477.867188zm0 0"/><path d="m59.734375 247.96875h153.597656c4.714844 0 8.535157-3.824219 8.535157-8.535156v-187.734375c0-4.710938-3.820313-8.53125-8.535157-8.53125h-153.597656c-4.714844 0-8.535156 3.820312-8.535156 8.53125v187.734375c0 4.710937 3.820312 8.535156 8.535156 8.535156zm110.933594-17.070312h-68.269531v-34.132813c0-18.851563 15.285156-34.132813 34.136718-34.132813 18.851563 0 34.132813 15.28125 34.132813 34.132813zm-59.734375-110.933594c0-14.136719 11.460937-25.597656 25.601562-25.597656 14.136719 0 25.597656 11.460937 25.597656 25.597656 0 14.140625-11.460937 25.601562-25.597656 25.601562-14.140625 0-25.601562-11.460937-25.601562-25.601562zm-42.667969-59.730469h136.535156v170.664063h-17.066406v-34.132813c-.019531-17.863281-9.359375-34.421875-24.636719-43.683594 18.441406-14.667969 21.496094-41.511719 6.824219-59.949219-14.671875-18.441406-41.511719-21.496093-59.953125-6.824218-18.4375 14.671875-21.496094 41.511718-6.824219 59.949218 2.011719 2.527344 4.300781 4.816407 6.824219 6.824219-15.277344 9.261719-24.617188 25.820313-24.636719 43.683594v34.132813h-17.066406zm0 0"/><path d="m256 43.167969h153.601562v17.066406h-153.601562zm0 0"/><path d="m256 111.433594h196.265625v17.066406h-196.265625zm0 0"/><path d="m256 179.699219h196.265625v17.066406h-196.265625zm0 0"/><path d="m256 230.898438h17.066406v17.070312h-17.066406zm0 0"/><path d="m298.667969 230.898438h17.066406v17.070312h-17.066406zm0 0"/><path d="m341.332031 230.898438h17.066407v17.070312h-17.066407zm0 0"/></svg>